# xmcd
#
# Track frame offsets:
#	150
#	13565
#	37858
#	56097
#	75868
#	94643
#	116567
#	135632
#	158061
#	178827
#	199138
#	216007
#
# Disc length: 3143 seconds
#
# Revision: 1
# Processed by: cddbd v1.5.2PL0 Copyright (c) Steve Scherf et al.
# Submitted via: audiograbber 1.83.01
#
DISCID=920c450c
DTITLE=Michael Martin Murphey - Cowboy Songs VI.Tall Grass and Cool Water
DYEAR=2011
DGENRE=Country
TTITLE0=Texas Cowboy
TTITLE1=Cool Water
TTITLE2=Santa Fe Trai
TTITLE3=Way Out There
TTITLE4=The Railroad Corral
TTITLE5=Partner to the Wind
TTITLE6=Trusty Lariat
TTITLE7=The Ballad of Cole Younger
TTITLE8=The Ballad of Jesse James
TTITLE9=Frank James Farewell
TTITLE10=Blue Prairie
TTITLE11=Springtime in the Rockies
EXTD=
EXTT0=
EXTT1=
EXTT2=
EXTT3=
EXTT4=
EXTT5=
EXTT6=
EXTT7=
EXTT8=
EXTT9=
EXTT10=
EXTT11=
PLAYORDER=
